HIERARCHY
ROOT joint_Root
{
	OFFSET 0.0 0.0 0.0
	CHANNELS 6 Xposition Yposition Zposition Zrotation Xrotation Yrotation 
	JOINT Hips
	{
		OFFSET -17.1583 93.1646 452.98
		CHANNELS 6 Xposition Yposition Zposition Zrotation Xrotation Yrotation 
		JOINT Spine
		{
			OFFSET 15.7357 0.0 0.0
			CHANNELS 6 Xposition Yposition Zposition Zrotation Xrotation Yrotation 
			JOINT Chest
			{
				OFFSET 8.98455 -0.406207 0.0
				CHANNELS 6 Xposition Yposition Zposition Zrotation Xrotation Yrotation 
				JOINT Neck
				{
					OFFSET 16.3773 0.0 0.0
					CHANNELS 6 Xposition Yposition Zposition Zrotation Xrotation Yrotation 
					JOINT Head
					{
						OFFSET 6.45672 0.0 0.0
						CHANNELS 6 Xposition Yposition Zposition Zrotation Xrotation Yrotation 
						End Site
						{
							OFFSET 0.0 0.0 0.0
						}
					}
				}
				JOINT Shoulder_L
				{
					OFFSET 12.9942 -0.242716 4.98039
					CHANNELS 6 Xposition Yposition Zposition Zrotation Xrotation Yrotation 
					JOINT UpperArm_L
					{
						OFFSET 5.34809 0.0 0.0
						CHANNELS 6 Xposition Yposition Zposition Zrotation Xrotation Yrotation 
						JOINT LowerArm_L
						{
							OFFSET 24.3286 1.87007e-05 0.0
							CHANNELS 6 Xposition Yposition Zposition Zrotation Xrotation Yrotation 
							JOINT Hand_L
							{
								OFFSET 22.2916 0.0 0.0
								CHANNELS 6 Xposition Yposition Zposition Zrotation Xrotation Yrotation 
								End Site
								{
									OFFSET 0.0 0.0 0.0
								}
							}
						}
					}
				}
				JOINT Shoulder_R
				{
					OFFSET 12.9945 -0.242716 -4.98039
					CHANNELS 6 Xposition Yposition Zposition Zrotation Xrotation Yrotation 
					JOINT UpperArm_R
					{
						OFFSET -5.34813 0.0 0.0
						CHANNELS 6 Xposition Yposition Zposition Zrotation Xrotation Yrotation 
						JOINT LowerArm_R
						{
							OFFSET -24.3289 0.000322201 0.0
							CHANNELS 6 Xposition Yposition Zposition Zrotation Xrotation Yrotation 
							JOINT Hand_R
							{
								OFFSET -22.2915 -0.000108084 0.0
								CHANNELS 6 Xposition Yposition Zposition Zrotation Xrotation Yrotation 
								End Site
								{
									OFFSET 0.0 0.0 0.0
								}
							}
						}
					}
				}
			}
		}
		JOINT UpperLeg_L
		{
			OFFSET -2.19248 -6.46944 0.0
			CHANNELS 6 Xposition Yposition Zposition Zrotation Xrotation Yrotation 
			JOINT LowerLeg_L
			{
				OFFSET 39.0811 0.0 -1.23785e-05
				CHANNELS 6 Xposition Yposition Zposition Zrotation Xrotation Yrotation 
				JOINT Foot_L
				{
					OFFSET 40.9854 0.0 -1.26872e-05
					CHANNELS 6 Xposition Yposition Zposition Zrotation Xrotation Yrotation 
					JOINT Toes_L
					{
						OFFSET 11.7543 0.0 0.0
						CHANNELS 6 Xposition Yposition Zposition Zrotation Xrotation Yrotation 
						End Site
						{
							OFFSET 0.0 0.0 0.0
						}
					}
				}
			}
		}
		JOINT UpperLeg_R
		{
			OFFSET -2.19251 6.46944 0.0
			CHANNELS 6 Xposition Yposition Zposition Zrotation Xrotation Yrotation 
			JOINT LowerLeg_R
			{
				OFFSET -39.0811 -0.00228153 -0.0401928
				CHANNELS 6 Xposition Yposition Zposition Zrotation Xrotation Yrotation 
				JOINT Foot_R
				{
					OFFSET -40.9854 0.0 0.0
					CHANNELS 6 Xposition Yposition Zposition Zrotation Xrotation Yrotation 
					JOINT Toes_R
					{
						OFFSET -11.7543 0.0 0.0
						CHANNELS 6 Xposition Yposition Zposition Zrotation Xrotation Yrotation 
						End Site
						{
							OFFSET 0.0 0.0 0.0
						}
					}
				}
			}
		}
	}
}
MOTION
Frames:	8
Frame Time:	0.0333333
0.000000 0.000000 0.000000 0.000000 0.000000 -0.000000 155.187000 86.901500 204.090000 89.379500 -48.321200 -0.034324 15.735700 0.000005 -0.000001 54.256200 83.578700 -52.900700 8.984550 -0.406207 -0.000000 2.770170 -7.554600 2.894180 16.377300 -0.000001 -0.000001 -1.941650 -5.278750 -2.603340 6.456720 -0.000001 -0.000000 -14.182200 -7.138340 -2.150930 12.994200 -0.242716 4.980390 -93.227200 10.095000 -72.168100 5.348090 -0.000007 -0.000001 -59.128100 -9.829670 -6.519220 24.328600 0.000019 0.000005 29.010000 17.453100 -61.593100 22.291600 -0.000001 0.000005 8.506760 5.108920 4.906890 12.994500 -0.242716 -4.980390 87.940100 5.031730 -67.702200 -5.348130 -0.000001 -0.000004 -60.799000 -15.826000 6.084300 -24.328900 0.000322 -0.000009 -0.000905 2.191770 0.000002 -22.291500 -0.000108 -0.000004 6.877410 5.105930 4.980200 -2.192480 -6.469440 -0.000000 -165.506000 -10.110000 5.463390 39.081100 -0.000007 -0.000012 0.171909 -0.151105 48.684500 40.985400 -0.000006 -0.000013 -9.319650 6.047730 -32.284100 11.754300 -0.000000 0.000003 -0.006467 -0.075028 -19.630700 -2.192510 6.469440 -0.000001 -161.432000 16.076600 154.802000 -39.081100 -0.002282 -0.040193 0.122742 -0.166032 35.733400 -40.985400 0.000008 0.000006 13.021500 -9.523370 -71.408800 -11.754300 -0.000006 -0.000006 -0.002550 0.203065 -8.334080
0.000000 0.000000 0.000000 0.000000 0.000000 -0.000000 151.641000 86.742500 206.209000 87.720900 -49.177000 -0.188908 15.735700 0.000005 -0.000001 56.860300 83.529800 -55.077400 8.984550 -0.406207 -0.000000 3.204820 -7.137760 3.765500 16.377300 -0.000001 -0.000001 -1.258230 -5.191720 -1.827120 6.456720 -0.000001 -0.000000 -14.328400 -7.237290 -1.348790 12.994200 -0.242716 4.980390 -93.239600 10.056100 -72.039400 5.348090 -0.000007 -0.000001 -61.967200 -3.510780 -5.869510 24.328600 0.000019 0.000005 26.612800 23.139100 -51.895600 22.291600 -0.000001 0.000005 4.151500 5.184990 3.073610 12.994500 -0.242716 -4.980390 87.524100 5.879320 -67.115000 -5.348130 -0.000001 -0.000004 -64.210100 -8.924750 2.087240 -24.328900 0.000322 -0.000009 0.115710 4.423070 -1.510910 -22.291500 -0.000108 -0.000004 -0.081915 5.132040 4.359100 -2.192480 -6.469440 -0.000000 -165.381000 -5.629750 -0.870712 39.081100 -0.000007 -0.000012 0.090191 -0.055716 58.292300 40.985400 -0.000006 -0.000013 -7.661170 7.916880 -26.376900 11.754300 -0.000000 0.000003 0.001999 0.046659 -14.684100 -2.192510 6.469440 -0.000001 -160.942000 18.819100 158.661000 -39.081100 -0.002282 -0.040193 0.160457 -0.210357 36.765700 -40.985400 0.000008 0.000006 12.504200 -6.898810 -74.969400 -11.754300 -0.000006 -0.000006 -0.002290 0.199955 -8.460610
0.000000 0.000000 0.000000 0.000000 0.000000 -0.000000 148.442000 87.279600 208.166000 87.716800 -51.611700 0.123062 15.735700 0.000005 -0.000001 60.730800 84.017800 -59.055300 8.984550 -0.406207 -0.000000 2.772910 -5.917270 3.493170 16.377300 -0.000001 -0.000001 -0.258895 -5.309080 -0.792164 6.456720 -0.000001 -0.000000 -13.502300 -7.352080 -1.158650 12.994200 -0.242716 4.980390 -93.272600 10.235600 -72.162800 5.348090 -0.000007 -0.000001 -63.746900 0.553807 -5.763090 24.328600 0.000019 0.000005 22.940900 31.302300 -39.171200 22.291600 -0.000001 0.000005 -3.827210 5.289640 0.332247 12.994500 -0.242716 -4.980390 87.121100 6.688730 -66.647900 -5.348130 -0.000001 -0.000004 -66.355500 -1.435250 -0.867500 -24.328900 0.000322 -0.000009 0.364825 3.263380 -6.406700 -22.291500 -0.000108 -0.000004 -5.330680 5.242790 1.606370 -2.192480 -6.469440 -0.000000 -166.203000 -3.098690 -7.083500 39.081100 -0.000007 -0.000012 0.015679 -0.007031 65.830000 40.985400 -0.000006 -0.000013 -6.831400 8.507440 -31.665400 11.754300 -0.000000 0.000003 0.002218 0.056246 -14.295300 -2.192510 6.469440 -0.000001 -162.158000 18.391600 163.489000 -39.081100 -0.002282 -0.040193 0.072295 -0.098771 34.939100 -40.985400 0.000008 0.000006 10.560200 -4.802730 -76.438500 -11.754300 -0.000006 -0.000006 -0.002303 0.200118 -8.453960
0.000000 0.000000 0.000000 0.000000 0.000000 -0.000000 145.539000 88.170900 210.189000 89.847800 -55.817100 1.920950 15.735700 0.000005 -0.000001 66.409000 84.604400 -65.458800 8.984550 -0.406207 -0.000000 2.166170 -4.362090 1.981760 16.377300 -0.000001 -0.000001 0.881255 -4.924760 0.093165 6.456720 -0.000001 -0.000000 -12.387400 -7.235390 -0.609018 12.994200 -0.242716 4.980390 -93.311400 10.189400 -71.889000 5.348090 -0.000007 -0.000001 -64.891200 1.391810 -5.080060 24.328600 0.000019 0.000005 13.660900 35.178700 -22.870000 22.291600 -0.000001 0.000005 -9.820920 5.288080 0.412974 12.994500 -0.242716 -4.980390 87.020700 6.974270 -66.798500 -5.348130 -0.000001 -0.000004 -68.210900 4.813690 -3.691860 -24.328900 0.000322 -0.000009 0.173835 0.829704 -11.927600 -22.291500 -0.000108 -0.000004 -6.929740 5.334690 -0.924224 -2.192480 -6.469440 -0.000000 -168.223000 -2.486540 -12.398300 39.081100 -0.000007 -0.000012 -0.015398 0.005754 69.529100 40.985400 -0.000006 -0.000013 -6.107420 6.779770 -36.233600 11.754300 -0.000000 0.000003 0.002159 0.053334 -14.413400 -2.192510 6.469440 -0.000001 -164.813000 16.330700 168.740000 -39.081100 -0.002282 -0.040193 0.046351 -0.069137 31.911900 -40.985400 0.000008 0.000006 9.458060 -2.395270 -76.624900 -11.754300 -0.000006 -0.000006 -0.002030 0.196756 -8.590710
0.000000 0.000000 0.000000 0.000000 0.000000 -0.000000 142.875000 89.242100 212.282000 93.807800 -60.732600 4.816090 15.735700 0.000005 -0.000001 73.197000 85.280600 -73.205800 8.984550 -0.406207 -0.000000 1.271260 -2.726830 0.012670 16.377300 -0.000001 -0.000001 1.815440 -4.308020 0.422291 6.456720 -0.000001 -0.000000 -11.322700 -6.926880 0.096975 12.994200 -0.242716 4.980390 -93.323000 9.830390 -71.217700 5.348090 -0.000007 -0.000001 -65.900000 -3.265280 -3.240110 24.328600 0.000019 0.000005 4.964710 36.234800 -8.361430 22.291600 -0.000001 0.000005 -11.721000 5.198380 2.759590 12.994500 -0.242716 -4.980390 87.234200 6.671590 -67.421700 -5.348130 -0.000001 -0.000004 -69.551900 9.935070 -6.143720 -24.328900 0.000322 -0.000009 0.196276 0.582353 -18.696100 -22.291500 -0.000108 -0.000004 -5.729130 5.347400 -1.299340 -2.192480 -6.469440 -0.000000 -170.939000 -2.462250 -17.375700 39.081100 -0.000007 -0.000012 -0.028534 0.010382 70.017900 40.985400 -0.000006 -0.000013 -4.702950 2.770400 -41.123200 11.754300 -0.000000 0.000003 0.002224 0.056526 -14.284000 -2.192510 6.469440 -0.000001 -168.222000 13.461900 173.534000 -39.081100 -0.002282 -0.040193 0.032037 -0.053875 28.070800 -40.985400 0.000008 0.000006 8.352120 0.671817 -75.982500 -11.754300 -0.000006 -0.000006 -0.001874 0.194799 -8.670300
0.000000 0.000000 0.000000 0.000000 0.000000 -0.000000 140.353000 90.349700 214.395000 99.376100 -66.028000 8.856090 15.735700 0.000005 -0.000001 83.389100 85.952100 -84.307400 8.984550 -0.406207 -0.000000 0.269674 -0.871704 -1.833280 16.377300 -0.000001 -0.000001 2.266580 -3.457410 0.270808 6.456720 -0.000001 -0.000000 -10.698600 -6.551920 0.393063 12.994200 -0.242716 4.980390 -93.387200 9.513560 -70.297800 5.348090 -0.000007 -0.000001 -65.488300 -10.387600 0.190622 24.328600 0.000019 0.000005 0.609065 40.588500 -0.937143 22.291600 -0.000001 0.000005 -11.505500 5.056380 6.091350 12.994500 -0.242716 -4.980390 87.426100 6.425840 -68.116600 -5.348130 -0.000001 -0.000004 -69.462100 14.257900 -8.444600 -24.328900 0.000322 -0.000009 1.040240 2.093260 -26.432700 -22.291500 -0.000108 -0.000004 -3.761390 5.343460 -1.183320 -2.192480 -6.469440 -0.000000 -173.585000 -2.855480 -21.719700 39.081100 -0.000007 -0.000012 -0.036871 0.015370 67.378300 40.985400 -0.000006 -0.000013 -2.305020 -2.461120 -46.647400 11.754300 -0.000000 0.000003 0.001982 0.046030 -14.709600 -2.192510 6.469440 -0.000001 -171.669000 10.176000 177.637000 -39.081100 -0.002282 -0.040193 0.015725 -0.028419 23.591100 -40.985400 0.000008 0.000006 7.128310 3.727540 -74.407500 -11.754300 -0.000006 -0.000006 -0.001481 0.189686 -8.878200
0.000000 0.000000 0.000000 0.000000 0.000000 -0.000000 137.837000 91.363700 216.528000 106.409000 -72.041000 14.295100 15.735700 0.000005 -0.000001 98.958700 86.341600 -100.467000 8.984550 -0.406207 -0.000000 -0.520200 1.248160 -3.009530 16.377300 -0.000001 -0.000001 2.010060 -2.222100 -0.170738 6.456720 -0.000001 -0.000000 -10.669600 -5.710050 0.082799 12.994200 -0.242716 4.980390 -93.642800 9.586460 -69.078800 5.348090 -0.000007 -0.000001 -63.800800 -13.972200 5.283550 24.328600 0.000019 0.000005 1.134130 44.594600 -1.614490 22.291600 -0.000001 0.000005 -12.120100 4.978620 7.770930 12.994500 -0.242716 -4.980390 87.621500 6.260390 -69.148400 -5.348130 -0.000001 -0.000004 -67.842900 18.367800 -11.701800 -24.328900 0.000322 -0.000009 1.778620 2.717750 -33.234400 -22.291500 -0.000108 -0.000004 -1.586160 5.373710 -2.094550 -2.192480 -6.469440 -0.000000 -175.209000 -3.863510 -24.959800 39.081100 -0.000007 -0.000012 -0.010502 0.005656 61.717100 40.985400 -0.000006 -0.000013 -1.346210 -7.860970 -51.745800 11.754300 -0.000000 0.000003 0.002192 0.054935 -14.348500 -2.192510 6.469440 -0.000001 -174.427000 5.588500 -178.808000 -39.081100 -0.002282 -0.040193 0.006362 -0.008929 18.793700 -40.985400 0.000008 0.000006 5.586670 6.061370 -71.793000 -11.754300 -0.000006 -0.000006 -0.000081 0.169024 -9.717730
0.000000 0.000000 0.000000 0.000000 0.000000 -0.000000 135.356000 92.095400 218.661000 116.935000 -77.704000 23.356100 15.735700 0.000005 -0.000001 114.264000 86.382600 -116.075000 8.984550 -0.406207 -0.000000 -1.118730 3.112780 -3.591380 16.377300 -0.000001 -0.000001 1.397030 -0.885813 -0.792949 6.456720 -0.000001 -0.000000 -11.073800 -4.477190 -0.454997 12.994200 -0.242716 4.980390 -93.893700 9.572280 -67.740800 5.348090 -0.000007 -0.000001 -62.506500 -14.102200 10.572800 24.328600 0.000019 0.000005 3.575340 43.446300 -5.192280 22.291600 -0.000001 0.000005 -11.093200 5.037280 6.520580 12.994500 -0.242716 -4.980390 87.918900 5.829370 -70.314100 -5.348130 -0.000001 -0.000004 -65.622300 21.303400 -15.478400 -24.328900 0.000322 -0.000009 1.924950 2.382080 -38.980100 -22.291500 -0.000108 -0.000004 0.220021 5.412770 -3.353880 -2.192480 -6.469440 -0.000000 -176.065000 -5.011740 -27.071100 39.081100 -0.000007 -0.000012 0.011967 -0.008849 53.504200 40.985400 -0.000006 -0.000013 -0.250192 -10.674200 -55.389400 11.754300 -0.000000 0.000003 0.002189 0.054798 -14.354100 -2.192510 6.469440 -0.000001 -177.202000 3.978810 -175.904000 -39.081100 -0.002282 -0.040193 0.002165 0.004548 14.387500 -40.985400 0.000008 0.000006 4.952250 10.804300 -69.199000 -11.754300 -0.000006 -0.000006 0.001461 0.137717 -10.988400
